<svg width="512" height="512" viewBox="0 0 512 512" fill="none" xmlns="http://www.w3.org/2000/svg">
<rect width="512" height="512" fill="white"/>
<rect width="512" height="512" rx="20" fill="#128C7E"/>
<g filter="url(#filter0_d_1_2)">
<path d="M241.094 256C241.094 259.953 242.664 263.745 245.46 266.54C248.255 269.336 252.047 270.906 256 270.906C259.953 270.906 263.745 269.336 266.54 266.54C269.336 263.745 270.906 259.953 270.906 256C270.906 252.047 269.336 248.255 266.54 245.46C263.745 242.664 259.953 241.094 256 241.094C252.047 241.094 248.255 242.664 245.46 245.46C242.664 248.255 241.094 252.047 241.094 256V256ZM303.203 256C303.203 259.953 304.774 263.745 307.569 266.54C310.365 269.336 314.156 270.906 318.109 270.906C322.063 270.906 325.854 269.336 328.65 266.54C331.445 263.745 333.016 259.953 333.016 256C333.016 252.047 331.445 248.255 328.65 245.46C325.854 242.664 322.063 241.094 318.109 241.094C314.156 241.094 310.365 242.664 307.569 245.46C304.774 248.255 303.203 252.047 303.203 256ZM178.984 256C178.984 259.953 180.555 263.745 183.35 266.54C186.146 269.336 189.937 270.906 193.891 270.906C197.844 270.906 201.635 269.336 204.431 266.54C207.226 263.745 208.797 259.953 208.797 256C208.797 252.047 207.226 248.255 204.431 245.46C201.635 242.664 197.844 241.094 193.891 241.094C189.937 241.094 186.146 242.664 183.35 245.46C180.555 248.255 178.984 252.047 178.984 256V256ZM384.318 202.089C377.3 185.413 367.238 170.444 354.412 157.588C341.676 144.805 326.557 134.645 309.911 127.682C292.831 120.508 274.695 116.875 256 116.875H255.379C236.56 116.968 218.331 120.695 201.188 128.024C184.685 135.058 169.707 145.237 157.091 157.991C144.389 170.817 134.421 185.723 127.527 202.338C120.384 219.542 116.782 237.833 116.875 256.652C116.98 278.219 122.083 299.467 131.781 318.73V365.934C131.781 369.722 133.286 373.356 135.965 376.035C138.644 378.714 142.278 380.219 146.066 380.219H193.301C212.564 389.917 233.812 395.02 255.379 395.125H256.031C274.633 395.125 292.676 391.523 309.662 384.473C326.225 377.593 341.288 367.551 354.009 354.909C366.834 342.208 376.927 327.364 383.976 310.812C391.305 293.669 395.032 275.44 395.125 256.621C395.218 237.709 391.554 219.355 384.318 202.089V202.089ZM337.394 338.109C315.625 359.661 286.744 371.523 256 371.523H255.472C236.746 371.43 218.144 366.772 201.716 358.015L199.108 356.617H155.383V312.892L153.985 310.284C145.228 293.856 140.57 275.254 140.477 256.528C140.352 225.566 152.184 196.499 173.891 174.606C195.568 152.712 224.542 140.601 255.503 140.477H256.031C271.558 140.477 286.62 143.489 300.812 149.451C314.662 155.259 327.084 163.612 337.767 174.295C348.419 184.947 356.804 197.4 362.611 211.25C368.635 225.597 371.648 240.814 371.586 256.528C371.399 287.458 359.257 316.432 337.394 338.109V338.109Z" fill="white"/>
</g>
<defs>
<filter id="filter0_d_1_2" x="92.0118" y="97" width="327.976" height="327.976" filterUnits="userSpaceOnUse" color-interpolation-filters="sRGB">
<feFlood flood-opacity="0" result="BackgroundImageFix"/>
<feColorMatrix in="SourceAlpha" type="matrix" values="0 0 0 0 0 0 0 0 0 0 0 0 0 0 0 0 0 0 127 0" result="hardAlpha"/>
<feOffset dy="4.98824"/>
<feGaussianBlur stdDeviation="2.49412"/>
<feComposite in2="hardAlpha" operator="out"/>
<feColorMatrix type="matrix" values="0 0 0 0 0 0 0 0 0 0 0 0 0 0 0 0 0 0 0.25 0"/>
<feBlend mode="normal" in2="BackgroundImageFix" result="effect1_dropShadow_1_2"/>
<feBlend mode="normal" in="SourceGraphic" in2="effect1_dropShadow_1_2" result="shape"/>
</filter>
</defs>
</svg>
