<svg width="517" height="432" viewBox="0 0 517 432" fill="none" xmlns="http://www.w3.org/2000/svg">
<g clip-path="url(#clip0_4_83)">
<path d="M242.69 431.994C355.388 431.994 446.747 427.323 446.747 421.56C446.747 415.797 355.388 411.125 242.69 411.125C129.993 411.125 38.6335 415.797 38.6335 421.56C38.6335 427.323 129.993 431.994 242.69 431.994Z" fill="#F2F2F2"/>
<path d="M361.909 100.259H359.591V36.7546C359.591 27.0067 355.719 17.658 348.826 10.7652C341.933 3.87236 332.584 1.07624e-05 322.836 0H188.294C178.546 -1.84497e-05 169.197 3.8723 162.305 10.7651C155.412 17.6579 151.539 27.0065 151.539 36.7544V385.144C151.539 394.892 155.412 404.24 162.305 411.133C169.197 418.026 178.546 421.898 188.294 421.898H322.836C332.584 421.898 341.933 418.026 348.826 411.133C355.718 404.24 359.591 394.892 359.591 385.144V145.462H361.909L361.909 100.259Z" fill="#282828"/>
<path d="M351.767 37.0109V384.887C351.767 392.167 348.875 399.149 343.728 404.297C338.58 409.444 331.598 412.336 324.318 412.337H189.131C181.851 412.336 174.869 409.444 169.721 404.297C164.574 399.149 161.682 392.167 161.682 384.887V37.0109C161.682 29.731 164.574 22.7493 169.721 17.6016C174.869 12.4539 181.851 9.56191 189.131 9.56177H205.531C204.725 11.542 204.418 13.69 204.637 15.8167C204.856 17.9434 205.594 19.9837 206.787 21.758C207.98 23.5324 209.59 24.9865 211.477 25.9925C213.363 26.9984 215.468 27.5253 217.606 27.5269H294.684C296.822 27.5253 298.926 26.9984 300.813 25.9924C302.699 24.9865 304.31 23.5324 305.503 21.758C306.695 19.9836 307.434 17.9434 307.653 15.8167C307.872 13.69 307.565 11.542 306.759 9.56177H324.318C331.598 9.5619 338.58 12.4539 343.728 17.6016C348.875 22.7493 351.767 29.731 351.767 37.0109Z" fill="white"/>
<path d="M308.217 187.014C307.318 187.483 306.404 187.928 305.475 188.347C304.628 188.73 303.769 189.089 302.895 189.425C302.576 189.547 302.252 189.669 301.927 189.791C299.36 190.721 296.724 191.448 294.043 191.964C292.716 192.225 291.371 192.43 290.008 192.579C288.884 192.707 287.748 192.797 286.6 192.851C285.782 192.892 284.965 192.909 284.142 192.909C280.882 192.911 277.629 192.606 274.426 191.999C273.591 191.849 272.774 191.669 271.956 191.472C268.002 190.524 264.175 189.111 260.553 187.263C260.229 187.101 259.904 186.927 259.579 186.759C259.098 186.504 258.629 186.237 258.159 185.959C258.385 185.646 258.629 185.338 258.878 185.037C261.591 181.675 264.981 178.923 268.829 176.959C272.676 174.996 276.894 173.865 281.208 173.641C285.522 173.417 289.835 174.104 293.865 175.658C297.895 177.212 301.553 179.598 304.6 182.66C305.657 183.721 306.637 184.857 307.533 186.057C307.77 186.37 307.997 186.689 308.217 187.014Z" fill="#00BFA6"/>
<path d="M285.299 161.549C299.357 161.549 310.753 150.152 310.753 136.094C310.753 122.036 299.357 110.639 285.299 110.639C271.24 110.639 259.844 122.036 259.844 136.094C259.844 150.152 271.24 161.549 285.299 161.549Z" fill="#2F2E41"/>
<path d="M292.069 161.585C301.25 156.566 304.624 145.055 299.605 135.874C294.586 126.693 283.075 123.319 273.894 128.338C264.713 133.356 261.339 144.867 266.358 154.048C271.376 163.229 282.888 166.604 292.069 161.585Z" fill="#A0616A"/>
<path d="M302.888 133.045C298.559 136.028 293.421 137.616 288.163 137.595C290.038 138.896 292.174 139.774 294.421 140.17C287.43 141.67 280.205 141.71 273.198 140.289C271.641 140.04 270.138 139.524 268.755 138.764C268.067 138.379 267.466 137.853 266.994 137.222C266.521 136.59 266.187 135.866 266.013 135.096C265.547 132.436 267.62 130.019 269.774 128.391C273.072 125.935 276.875 124.243 280.907 123.437C284.939 122.632 289.1 122.732 293.088 123.732C295.692 124.405 298.301 125.542 299.993 127.634C301.684 129.725 302.185 132.95 300.574 135.103L302.888 133.045Z" fill="#2F2E41"/>
<path d="M284.142 88.562C272.763 88.5603 261.696 92.279 252.627 99.1511C243.559 106.023 236.986 115.672 233.91 126.627C230.834 137.582 231.425 149.242 235.591 159.83C239.758 170.418 247.272 179.354 256.988 185.275L257.324 185.472C257.603 185.64 257.881 185.802 258.159 185.959C258.629 186.237 259.098 186.504 259.579 186.759C259.904 186.927 260.229 187.101 260.553 187.263C264.175 189.111 268.002 190.524 271.956 191.472C272.774 191.669 273.591 191.848 274.426 191.999C277.629 192.606 280.882 192.911 284.142 192.909C284.965 192.909 285.782 192.892 286.6 192.851C287.747 192.799 288.884 192.708 290.008 192.579C291.371 192.428 292.716 192.223 294.043 191.964C296.724 191.448 299.36 190.721 301.927 189.79C302.252 189.669 302.576 189.547 302.895 189.425C303.77 189.089 304.63 188.73 305.475 188.347C306.402 187.93 307.316 187.485 308.217 187.014C317.242 182.287 324.701 175.044 329.689 166.162C329.712 166.115 329.741 166.069 329.765 166.022C332.426 161.247 334.314 156.079 335.359 150.712C336.825 143.157 336.603 135.371 334.708 127.912C332.813 120.453 329.293 113.505 324.398 107.566C319.504 101.627 313.357 96.8431 306.397 93.5577C299.438 90.2723 291.838 88.5664 284.142 88.562H284.142ZM328.814 165.344C328.767 165.425 328.727 165.507 328.68 165.582C323.792 174.333 316.437 181.453 307.533 186.057C306.646 186.521 305.743 186.956 304.826 187.362C304.066 187.704 303.289 188.028 302.507 188.33C302.176 188.457 301.84 188.585 301.504 188.701C299.286 189.511 297.014 190.162 294.704 190.648C292.99 191.013 291.258 191.286 289.515 191.466C288.443 191.582 287.353 191.663 286.257 191.704C285.556 191.733 284.849 191.75 284.142 191.75C280.987 191.754 277.839 191.461 274.739 190.875C272.853 190.527 270.989 190.07 269.156 189.506C266.364 188.644 263.651 187.544 261.046 186.219C260.745 186.063 260.443 185.906 260.147 185.744C259.724 185.518 259.295 185.286 258.878 185.037C258.565 184.863 258.252 184.677 257.945 184.492C257.765 184.388 257.585 184.277 257.405 184.167C248.886 178.936 242.091 171.318 237.862 162.259C233.633 153.201 232.156 143.1 233.616 133.21C235.075 123.319 239.406 114.075 246.071 106.624C252.736 99.1731 261.442 93.8428 271.109 91.2946C280.776 88.7464 290.979 89.0924 300.451 92.2898C309.923 95.4872 318.248 101.395 324.393 109.281C330.538 117.166 334.233 126.683 335.019 136.649C335.804 146.615 333.647 156.593 328.814 165.344H328.814Z" fill="#3F3D56"/>
<path d="M272.409 110.991C272.135 108.111 268.607 106.338 265.848 107.207C263.089 108.077 261.277 110.856 260.73 113.696C260.466 114.893 260.441 116.129 260.657 117.335C260.872 118.541 261.324 119.692 261.985 120.724C263.379 122.731 265.942 123.983 268.333 123.474C271.061 122.892 272.952 120.228 273.493 117.491C274.034 114.754 273.497 111.932 272.96 109.194L272.409 110.991Z" fill="#2F2E41"/>
<path d="M311.239 115.105C310.965 112.225 307.437 110.452 304.678 111.322C301.919 112.192 300.108 114.97 299.56 117.81C299.297 119.007 299.272 120.243 299.487 121.449C299.703 122.655 300.154 123.807 300.815 124.838C302.21 126.845 304.773 128.098 307.163 127.588C309.892 127.006 311.782 124.342 312.323 121.605C312.864 118.868 312.327 116.046 311.791 113.308L311.239 115.105Z" fill="#2F2E41"/>
<path d="M193.961 161.587C193.6 161.586 193.243 161.511 192.913 161.365C192.582 161.218 192.287 161.005 192.044 160.738L163.277 129.356C162.951 129.001 162.554 128.717 162.113 128.523C161.671 128.329 161.194 128.228 160.711 128.228H8.70086C6.39401 128.225 4.18239 127.307 2.5512 125.676C0.920006 124.045 0.00246794 121.833 -0.00012207 119.527V64.7081C0.0024664 62.4012 0.920005 60.1896 2.5512 58.5584C4.18239 56.9272 6.39401 56.0097 8.70086 56.0071H205.642C207.949 56.0097 210.16 56.9272 211.792 58.5584C213.423 60.1896 214.34 62.4012 214.343 64.7081V119.527C214.34 121.833 213.423 124.045 211.792 125.676C210.16 127.307 207.949 128.225 205.642 128.228H200.059C199.136 128.229 198.251 128.596 197.598 129.248C196.946 129.901 196.579 130.786 196.578 131.709V158.974C196.58 159.501 196.422 160.015 196.125 160.45C195.828 160.884 195.405 161.218 194.914 161.407C194.61 161.525 194.287 161.587 193.961 161.587Z" fill="white"/>
<path d="M193.961 161.587C193.6 161.586 193.243 161.511 192.913 161.365C192.582 161.218 192.287 161.005 192.044 160.738L163.277 129.356C162.951 129.001 162.554 128.717 162.113 128.523C161.671 128.329 161.194 128.228 160.711 128.228H8.70086C6.39401 128.225 4.18239 127.307 2.5512 125.676C0.920006 124.045 0.00246794 121.833 -0.00012207 119.527V64.7081C0.0024664 62.4012 0.920005 60.1896 2.5512 58.5584C4.18239 56.9272 6.39401 56.0097 8.70086 56.0071H205.642C207.949 56.0097 210.16 56.9272 211.792 58.5584C213.423 60.1896 214.34 62.4012 214.343 64.7081V119.527C214.34 121.833 213.423 124.045 211.792 125.676C210.16 127.307 207.949 128.225 205.642 128.228H200.059C199.136 128.229 198.251 128.596 197.598 129.248C196.946 129.901 196.579 130.786 196.578 131.709V158.974C196.58 159.501 196.422 160.015 196.125 160.45C195.828 160.884 195.405 161.218 194.914 161.407C194.61 161.525 194.287 161.587 193.961 161.587ZM8.70086 57.1665C6.70141 57.1688 4.78449 57.964 3.37066 59.3779C1.95683 60.7917 1.16155 62.7086 1.15929 64.7081V119.527C1.16155 121.526 1.95683 123.443 3.37066 124.857C4.78449 126.271 6.70141 127.066 8.70086 127.068H160.711C161.355 127.069 161.991 127.203 162.579 127.462C163.168 127.721 163.697 128.099 164.132 128.573L192.898 159.954C193.096 160.17 193.354 160.321 193.638 160.387C193.923 160.453 194.221 160.432 194.493 160.326C194.766 160.22 195 160.034 195.165 159.793C195.33 159.552 195.418 159.266 195.418 158.974V131.709C195.42 130.478 195.909 129.299 196.779 128.429C197.649 127.559 198.828 127.07 200.059 127.068H205.642C207.641 127.066 209.558 126.271 210.972 124.857C212.386 123.443 213.181 121.526 213.184 119.527V64.7081C213.181 62.7086 212.386 60.7917 210.972 59.3779C209.558 57.964 207.641 57.1688 205.642 57.1665H8.70086Z" fill="#3F3D56"/>
<path d="M21.3415 80.1893C25.5465 80.1893 28.9553 76.7806 28.9553 72.5756C28.9553 68.3707 25.5465 64.9619 21.3415 64.9619C17.1366 64.9619 13.7278 68.3707 13.7278 72.5756C13.7278 76.7806 17.1366 80.1893 21.3415 80.1893Z" fill="#00BFA6"/>
<path d="M196.759 114.705H17.5834C17.0498 114.705 16.5212 114.601 16.028 114.397C15.5348 114.193 15.0866 113.894 14.709 113.517C14.3314 113.14 14.0319 112.692 13.8275 112.199C13.6231 111.706 13.5179 111.178 13.5179 110.644C13.5179 110.11 13.6231 109.582 13.8275 109.089C14.0319 108.596 14.3314 108.148 14.709 107.771C15.0866 107.394 15.5348 107.095 16.028 106.891C16.5212 106.687 17.0498 106.583 17.5834 106.583H196.759C197.835 106.585 198.867 107.013 199.627 107.775C200.388 108.536 200.815 109.568 200.815 110.644C200.815 111.72 200.388 112.752 199.627 113.514C198.867 114.275 197.835 114.703 196.759 114.705Z" fill="#E6E6E6"/>
<path d="M138.388 97.447H17.5834C17.0498 97.4476 16.5212 97.3431 16.028 97.1393C15.5348 96.9355 15.0866 96.6365 14.709 96.2594C14.3314 95.8822 14.0319 95.4344 13.8275 94.9414C13.6231 94.4484 13.5179 93.92 13.5179 93.3863C13.5179 92.8527 13.6231 92.3242 13.8275 91.8313C14.0319 91.3383 14.3314 90.8904 14.709 90.5133C15.0866 90.1362 15.5348 89.8372 16.028 89.6334C16.5212 89.4296 17.0498 89.325 17.5834 89.3257H138.388C139.465 89.3257 140.497 89.7535 141.259 90.515C142.02 91.2765 142.448 92.3094 142.448 93.3863C142.448 94.4633 142.02 95.4961 141.259 96.2576C140.497 97.0192 139.465 97.447 138.388 97.447Z" fill="#E6E6E6"/>
<path d="M321.775 347.493C321.283 347.304 320.861 346.97 320.564 346.536C320.267 346.101 320.109 345.587 320.111 345.06V317.795C320.11 316.872 319.743 315.987 319.09 315.335C318.438 314.682 317.553 314.315 316.63 314.314H311.047C308.74 314.311 306.528 313.394 304.897 311.762C303.266 310.131 302.348 307.92 302.346 305.613V250.794C302.348 248.487 303.266 246.276 304.897 244.645C306.528 243.013 308.74 242.096 311.047 242.093H507.988C510.295 242.096 512.506 243.013 514.138 244.645C515.769 246.276 516.686 248.487 516.689 250.794V305.613C516.686 307.92 515.769 310.131 514.138 311.762C512.506 313.394 510.295 314.311 507.988 314.314H355.977C355.495 314.314 355.018 314.415 354.576 314.609C354.134 314.804 353.738 315.087 353.411 315.443L324.645 346.824C324.402 347.091 324.106 347.305 323.776 347.451C323.446 347.597 323.089 347.673 322.728 347.673C322.402 347.673 322.079 347.612 321.775 347.493Z" fill="white"/>
<path d="M321.775 347.493C321.283 347.304 320.861 346.97 320.564 346.536C320.267 346.101 320.109 345.587 320.111 345.06V317.795C320.11 316.872 319.743 315.987 319.09 315.335C318.438 314.682 317.553 314.315 316.63 314.314H311.047C308.74 314.311 306.528 313.394 304.897 311.762C303.266 310.131 302.348 307.92 302.346 305.613V250.794C302.348 248.487 303.266 246.276 304.897 244.645C306.528 243.013 308.74 242.096 311.047 242.093H507.988C510.295 242.096 512.506 243.013 514.138 244.645C515.769 246.276 516.686 248.487 516.689 250.794V305.613C516.686 307.92 515.769 310.131 514.138 311.762C512.506 313.394 510.295 314.311 507.988 314.314H355.977C355.495 314.314 355.018 314.415 354.576 314.609C354.134 314.804 353.738 315.087 353.411 315.443L324.645 346.824C324.402 347.091 324.106 347.305 323.776 347.451C323.446 347.597 323.089 347.673 322.728 347.673C322.402 347.673 322.079 347.612 321.775 347.493ZM311.047 243.253C309.047 243.255 307.13 244.05 305.716 245.464C304.303 246.878 303.507 248.795 303.505 250.794V305.613C303.507 307.612 304.303 309.529 305.716 310.943C307.13 312.357 309.047 313.152 311.047 313.154H316.63C317.86 313.156 319.04 313.645 319.91 314.515C320.78 315.385 321.269 316.565 321.27 317.795V345.06C321.27 345.353 321.359 345.638 321.524 345.879C321.689 346.121 321.923 346.306 322.195 346.412C322.468 346.518 322.766 346.539 323.05 346.473C323.335 346.407 323.593 346.256 323.791 346.041L352.557 314.659C352.992 314.185 353.521 313.807 354.109 313.548C354.698 313.289 355.334 313.155 355.977 313.154H507.988C509.987 313.152 511.904 312.357 513.318 310.943C514.732 309.529 515.527 307.612 515.529 305.613V250.794C515.527 248.795 514.732 246.878 513.318 245.464C511.904 244.05 509.987 243.255 507.988 243.253H311.047Z" fill="#3F3D56"/>
<path d="M260.392 364.468C252.315 369.639 242.958 372.46 233.37 372.612C223.781 372.765 214.339 370.244 206.102 365.332C207.551 362.635 209.387 360.164 211.551 357.998C214.891 354.643 218.956 352.097 223.433 350.558C227.91 349.018 232.68 348.525 237.378 349.117C242.075 349.708 246.574 351.369 250.53 353.971C254.485 356.573 257.791 360.047 260.194 364.126C260.258 364.236 260.328 364.352 260.392 364.468Z" fill="#00BFA6"/>
<path d="M230.979 336.746C245.13 336.746 256.603 325.274 256.603 311.122C256.603 296.97 245.13 285.498 230.979 285.498C216.827 285.498 205.355 296.97 205.355 311.122C205.355 325.274 216.827 336.746 230.979 336.746Z" fill="#2F2E41"/>
<path d="M250.046 329.196C255.098 319.954 251.701 308.366 242.459 303.314C233.217 298.262 221.63 301.658 216.578 310.9C211.525 320.142 214.922 331.73 224.164 336.782C233.406 341.834 244.994 338.438 250.046 329.196Z" fill="#FFB8B8"/>
<path d="M213.272 308.052C217.63 311.056 222.803 312.655 228.095 312.634C226.207 313.943 224.058 314.827 221.795 315.225C228.833 316.735 236.106 316.776 243.159 315.346C244.727 315.094 246.24 314.574 247.632 313.809C248.325 313.422 248.929 312.893 249.405 312.257C249.881 311.621 250.217 310.892 250.392 310.117C250.861 307.44 248.775 305.007 246.606 303.367C243.286 300.895 239.459 299.192 235.4 298.381C231.341 297.57 227.152 297.671 223.137 298.678C220.516 299.355 217.89 300.5 216.187 302.606C214.484 304.711 213.98 307.957 215.602 310.125L213.272 308.052Z" fill="#2F2E41"/>
<path d="M232.547 373.198C219.998 373.194 207.871 368.666 198.39 360.444C188.91 352.222 182.712 340.857 180.933 328.435C179.154 316.012 181.913 303.365 188.705 292.812C195.497 282.26 205.866 274.51 217.91 270.984C229.953 267.458 242.865 268.393 254.275 273.617C265.685 278.841 274.829 288.004 280.03 299.424C285.231 310.845 286.14 323.758 282.59 335.795C279.041 347.832 271.27 358.185 260.704 364.956C252.302 370.343 242.528 373.204 232.547 373.198ZM232.547 270.01C222.456 270.009 212.591 273.001 204.201 278.607C195.81 284.212 189.27 292.18 185.408 301.503C181.546 310.826 180.535 321.084 182.503 330.982C184.472 340.879 189.331 349.97 196.466 357.105C203.602 364.241 212.693 369.1 222.59 371.068C232.487 373.037 242.746 372.026 252.069 368.164C261.391 364.302 269.359 357.762 274.965 349.371C280.571 340.98 283.562 331.116 283.561 321.025C283.546 307.499 278.166 294.533 268.603 284.969C259.039 275.405 246.072 270.026 232.547 270.01Z" fill="#3F3D56"/>
<path d="M326.848 265.696C331.052 265.696 334.461 262.287 334.461 258.082C334.461 253.877 331.052 250.468 326.848 250.468C322.643 250.468 319.234 253.877 319.234 258.082C319.234 262.287 322.643 265.696 326.848 265.696Z" fill="#00BFA6"/>
<path d="M502.264 300.211H323.088C322.555 300.212 322.026 300.107 321.533 299.903C321.04 299.7 320.591 299.401 320.214 299.024C319.836 298.646 319.537 298.199 319.332 297.706C319.128 297.213 319.023 296.684 319.023 296.15C319.023 295.617 319.128 295.088 319.332 294.595C319.537 294.102 319.836 293.655 320.214 293.277C320.591 292.9 321.04 292.601 321.533 292.398C322.026 292.194 322.555 292.089 323.088 292.09H502.264C503.341 292.09 504.374 292.518 505.136 293.279C505.897 294.041 506.325 295.074 506.325 296.15C506.325 297.227 505.897 298.26 505.136 299.022C504.374 299.783 503.341 300.211 502.264 300.211Z" fill="#E6E6E6"/>
<path d="M443.892 282.953H323.088C322.555 282.954 322.026 282.849 321.533 282.646C321.04 282.442 320.591 282.143 320.214 281.766C319.836 281.389 319.537 280.941 319.332 280.448C319.128 279.955 319.023 279.426 319.023 278.893C319.023 278.359 319.128 277.831 319.332 277.338C319.537 276.845 319.836 276.397 320.214 276.02C320.591 275.643 321.04 275.344 321.533 275.14C322.026 274.936 322.555 274.831 323.088 274.832H443.892C444.969 274.833 446 275.262 446.761 276.023C447.521 276.784 447.948 277.817 447.948 278.893C447.948 279.969 447.521 281.001 446.761 281.762C446 282.524 444.969 282.952 443.892 282.953Z" fill="#E6E6E6"/>
<path d="M321.531 352.682C329.376 352.682 335.736 351.977 335.736 351.106C335.736 350.235 329.376 349.529 321.531 349.529C313.686 349.529 307.326 350.235 307.326 351.106C307.326 351.977 313.686 352.682 321.531 352.682Z" fill="#F2F2F2"/>
<path d="M194.576 167.176C202.421 167.176 208.781 166.47 208.781 165.6C208.781 164.729 202.421 164.023 194.576 164.023C186.73 164.023 180.371 164.729 180.371 165.6C180.371 166.47 186.73 167.176 194.576 167.176Z" fill="#F2F2F2"/>
</g>
<defs>
<clipPath id="clip0_4_83">
<rect width="516.69" height="431.995" fill="white"/>
</clipPath>
</defs>
</svg>
