<svg width="1440" height="643" viewBox="0 0 1440 643" fill="none" xmlns="http://www.w3.org/2000/svg">
<path fill-rule="evenodd" clip-rule="evenodd" d="M-151.865 0L-79.2093 59.5064C-6.55389 119.013 138.757 238.026 284.068 238.026C429.378 238.026 574.689 119.013 720 130.584C865.31 143.807 1010.62 285.961 1155.93 322.326C1301.24 357.039 1446.55 285.961 1519.21 249.596L1591.86 214.884V643H1519.21C1446.55 643 1301.24 643 1155.93 643C1010.62 643 865.31 643 720 643C574.689 643 429.378 643 284.068 643C138.757 643 -6.55389 643 -79.2093 643H-151.865V0Z" fill="#313030"/>
</svg>
